# xmcd
#
# Track frame offsets: 
#        150
#        17730
#        38670
#        57745
#        76005
#        93378
#        135803
#        157053
#        176698
#        197933
#        215863
#        233993
#        256193
#
# Disc length: 3673 seconds
#
# Revision: 0
# Processed by: cddbd v1.4PL0 Copyright (c) Steve Scherf et al.
# Submitted via: ExactAudioCopy v0.90a11
#
DISCID=af0e570d
DTITLE=Bunk Johnson - The King of the Blues
DYEAR=1900
DGENRE=
TTITLE0=C.C. Rider
TTITLE1=Low Down Blues
TTITLE2=St. Louis Blues
TTITLE3=Blue As I Can Be
TTITLE4=Dippermouth Blues
TTITLE5=Midnight Blues
TTITLE6=Weary Blues
TTITLE7=New Iberia Blues
TTITLE8=Careless Love
TTITLE9=How Long Blues
TTITLE10=Royal Garden Blues
TTITLE11=Tishomingo Blues
TTITLE12=C.C. Rider Blues
EXTD=
EXTT0=
EXTT1=
EXTT2=
EXTT3=
EXTT4=
EXTT5=
EXTT6=
EXTT7=
EXTT8=
EXTT9=
EXTT10=
EXTT11=
EXTT12=
PLAYORDER=
